<svg xmlns="http://www.w3.org/2000/svg" width="48" height="48" viewBox="0 0 48 48" fill="none">
    <path
        d="M29.7438 24.0692C30.9294 22.7974 32.6215 22 34.4996 22C37.7059 22 40.3694 24.321 40.9025 27.375C42.7199 28.1235 44 29.9113 44 32C44 34.7614 41.7614 37 39 37H27.0008C24.2394 37 22 34.7614 22 32C22 29.9313 23.2556 28.1579 25.0452 27.3969C25.336 25.4739 26.9959 24 29 24C29.2537 24 29.5024 24.0237 29.7438 24.0692Z"
        fill="url(#paint0_linear_2886_13652)" />
    <path fill-rule="evenodd" clip-rule="evenodd"
        d="M8 4H21.9999C21.9999 4.04442 22.0029 4.08936 22.0091 4.1346L23.4264 14.5781C23.7617 17.0486 26.2508 18.6138 28.6226 17.8456L34 16.1039V20.0145C32.1079 20.1245 30.381 20.8547 29.0224 22L29 22C26.3717 22 24.1406 23.6885 23.328 26.0401C21.3338 27.2711 20 29.477 20 32C20 35.8664 23.1353 39 27.0008 39H34V41C34 42.6569 32.6569 44 31 44H8C5.79086 44 4 42.2091 4 40V8C4 5.79086 5.79086 4 8 4ZM28.0063 15.9429L33.5587 14.1445L24.1026 4.68836L25.4083 14.3091C25.5759 15.5444 26.8204 16.327 28.0063 15.9429ZM8 31C7.44772 31 7 31.4477 7 32C7 32.5523 7.44772 33 8 33H16C16.5523 33 17 32.5523 17 32C17 31.4477 16.5523 31 16 31H8ZM7 40C7 39.4477 7.44772 39 8 39H14C14.5523 39 15 39.4477 15 40C15 40.5523 14.5523 41 14 41H8C7.44772 41 7 40.5523 7 40ZM8 35C7.44772 35 7 35.4477 7 36C7 36.5523 7.44772 37 8 37H12C12.5523 37 13 36.5523 13 36C13 35.4477 12.5523 35 12 35H8Z"
        fill="url(#paint1_linear_2886_13652)" />
    <defs>
        <linearGradient id="paint0_linear_2886_13652" x1="22" y1="22" x2="35.9633" y2="42.4795"
            gradientUnits="userSpaceOnUse">
            <stop stop-color="#00B1FF" />
            <stop offset="1" stop-color="#365BA1" />
        </linearGradient>
        <linearGradient id="paint1_linear_2886_13652" x1="4" y1="4" x2="42.4" y2="32.8"
            gradientUnits="userSpaceOnUse">
            <stop stop-color="#B1EDF2" />
            <stop offset="1" stop-color="#00B1FF" />
        </linearGradient>
    </defs>
</svg>