<?xml version="1.0" encoding="utf-8"?>
<svg version="1.1" xmlns="http://www.w3.org/2000/svg" xmlns:xlink="http://www.w3.org/1999/xlink" x="0px" y="0px"
	 viewBox="0 0 512 512" style="enable-background:new 0 0 512 512;" xml:space="preserve">
<style type="text/css">
	.st0{fill-rule:evenodd;clip-rule:evenodd;fill:#E06B55;}
	.st1{fill:#B44634;}
</style>
<path class="st0" d="M295.2,0H470l6.8,1.5l4.8,1.5l5.2,2.2l4.2,2.5l4.2,3.2l3,2.8l1.8,1.8l2.8,3.5l2.5,3.8l2.5,4.8l2,5.2l1.5,6
	l0.8,4v173.5l-1.5,7.2l-2.2,6.8l-2,4l-2.5,4l-2.2,2.8l-2.5,2.8l-2,1.8l-44.8,44.8l-1,2.2l-5.5,20.2l5-18.5l0.5-2.5h-0.5l-0.2,0.2
	l-1.2,0.5l-1,1.2l-0.5,1H447l-0.5,0.8l-1,0.5v0.5H445l-2,2l-2,1.5l-1,1.5l-1.2,1l-1.2,1.2l-0.5,1h-0.5l-1,1v0.5H435v0.5h-0.5l-1,1
	v0.5H433v0.5h-0.5v0.8H432l-0.5,1H431l-1,1l-0.5,1H429l-1.2,1.5l-0.5,1h-0.5l-0.5,0.8l-1.5,1.2l-1.5,1.8l-1.5,1.2l-1.5,1.8l-1.5,1.2
	l-0.2,0.8H418l-1.2,1.2l-0.2,0.8H416l-0.5,1H415l-0.5,1H414l-0.5,1H413l-0.8,1l-1.5,1.2l-0.2,0.8H410l-0.5,1H409l-0.5,1H408l-0.5,1
	l-1,0.5l-2,1.8v0.5H404v0.5h-0.5v0.5H403v0.5h-0.5v0.5H402l-0.5,1H401l-1,1l-0.5,1H399l-0.5,1l-1,0.2l-1.5,1.8l-1.2,1.2v0.5h-0.5
	v0.5h-0.5v0.5h-0.5v0.5l-0.8,0.2l-1.2,1.2l-1.8,1.5v0.8H389l-1.5,1.2l-0.5,1h-0.5l-0.5,1h-0.5l-0.5,0.8l-1.5,1.2l-0.2,1h-0.5l-1,1
	l-1.5,1.8l-1.5,1.2l-0.5,1.2h-0.8l-0.2,1h-0.5v0.5h-0.5v0.5h-0.5l-1.5,1.8l-0.5,1h-0.5l-0.5,1h-0.5l-0.5,1h-0.5l-0.5,1h-0.5l-0.5,1
	h-0.5l-1,1l-1.2,1.5l-1.8,1.5l-1.5,1.8l-0.5,1h-0.5l-0.8,1l-1.8,1.5l-1.2,1.5l-58.2,58.2l-1.5,1.2l-0.2,0.8h-0.5l-8.2,8.2l-2,1.8
	l-1.2,1.5l-1.8,1.5l-1,1.2l-3,3l-2,1.8l-1.2,1.5l-5.5,5.5l-0.5,1h-0.5l-4,4l-0.5,1l-0.8,0.2l-0.5,1h-0.5l-7,7l-2,1.8l-0.2,0.8v0.8
	l2,0.8l-1.8-0.5H255L243.5,499l-2.8,2.2L237,504l-5.2,3l-4,1.8l-5.2,1.8l-6.8,1.5h-9.5l-6.8-1.5l-5-1.5l-6.2-3l-3.8-2.5l-3.5-2.8
	l-3.2-3L15,335l-2-1.8l-2.2-2.2L8,327.5L5.8,324l-2.5-5.2l-1.5-4.5l-1.2-5.5L0,306.2v-11.5l1.8-7.5l1.8-5.2l2.5-5l2-3l2-2.5l2.2-2.5
	l2.5-2.5h0.5l0.2-0.8l2-1.8L269.8,11.8l3.5-2.8l4.5-3l4.2-2.2l5.5-2l6.5-1.5L295.2,0z M395.2,64h9l6.2,1l4.5,1.2l4.2,1.5l4.2,2
	l4.5,2.8l3.5,2.8l3,2.8l3,3.2l2.5,3.5l2.2,3.8l2.2,4.8l1.8,5.2l1,4.5l0.8,5.8v7l-1,6.8l-1.8,6.2L443,134l-2.5,4.5l-2,2.8l-2,2.5
	l-3.5,3.8l-2.8,2.2l-3.5,2.5l-4.2,2.5l-4.5,2l-4.5,1.5l-4.2,1l-6.5,0.8H397l-4.5-0.5l-5.8-1.2l-6-2L376,154l-4.8-3l-3.5-3l-2-1.8
	l-1.8-1.8l-2.8-3.5l-1.8-2.5l-2.2-4l-2.2-5l-1.5-4.8l-1.2-6.2l-0.2-2.2v-9l1-6l1.5-5.2l1.5-4l3-5.8l3-4.2l3-3.5l2.5-2.5l3.5-2.8
	l2.5-1.8l4-2.2l4.2-2l4.8-1.5l5.5-1.2L395.2,64z"/>
<path class="st1" d="M450.8,291.8h0.5l-0.5,2.5l-10,37l-4.8,17.5l-6.2,23l-5,18.5l-4.8,17.5l-6.2,23l-5,18.5l-4,14.8l-2.8,10
	l-2.2,6.8l-3,6.2l-2.5,4l-3.5,4.5l-1.2,1.5l-2,1.8l-2,2l-3.2,2.5l-4.5,2.8l-4,2l-3.8,1.5l-6.2,1.8L360,512h-11.8l-25.5-6.8L258,488
	l-2-0.8v-0.8l0.2-0.8l2-1.8l7-7h0.5l0.5-1l0.8-0.2l0.5-1l4-4h0.5l0.5-1l5.5-5.5l1.2-1.5l2-1.8l3-3l1-1.2l1.8-1.5l1.2-1.5l2-1.8
	l8.2-8.2h0.5l0.2-0.8l1.5-1.2l58.2-58.2l1.2-1.5l1.8-1.5l0.8-1h0.5l0.5-1l1.5-1.8l1.8-1.5l1.2-1.5l1-1h0.5l0.5-1h0.5l0.5-1h0.5
	l0.5-1h0.5l0.5-1h0.5l0.5-1l1.5-1.8h0.5v-0.5h0.5V365h0.5l0.2-1h0.8l0.5-1.2l1.5-1.2l1.5-1.8l1-1h0.5l0.2-1l1.5-1.2l0.5-0.8h0.5
	l0.5-1h0.5l0.5-1l1.5-1.2h0.5v-0.8l1.8-1.5l1.2-1.2l0.8-0.2v-0.5h0.5v-0.5h0.5v-0.5h0.5v-0.5l1.2-1.2l1.5-1.8l1-0.2l0.5-1h0.5l0.5-1
	l1-1h0.5l0.5-1h0.5V339h0.5v-0.5h0.5V338h0.5v-0.5h0.5V337l2-1.8l1-0.5l0.5-1h0.5l0.5-1h0.5l0.5-1h0.5l0.2-0.8l1.5-1.2l0.8-1h0.5
	l0.5-1h0.5l0.5-1h0.5l0.5-1h0.5l0.2-0.8l1.2-1.2h0.5l0.2-0.8l1.5-1.2l1.5-1.8l1.5-1.2l1.5-1.8l1.5-1.2l0.5-0.8h0.5l0.5-1l1.2-1.5
	h0.5l0.5-1l1-1h0.5l0.5-1h0.5v-0.8h0.5v-0.5h0.5v-0.5l1-1h0.5v-0.5h0.5v-0.5l1-1h0.5l0.5-1l1.2-1.2l1.2-1l1-1.5l2-1.5l2-2h0.5V296
	l1-0.5l0.5-0.8h0.8l0.5-1l1-1.2l1.2-0.5L450.8,291.8z"/>
</svg>
